<?xml version="1.0" standalone="no"?>
<!DOCTYPE svg PUBLIC "-//W3C//DTD SVG 20010904//EN"
 "http://www.w3.org/TR/2001/REC-SVG-20010904/DTD/svg10.dtd">
<svg version="1.0" xmlns="http://www.w3.org/2000/svg"
 width="700.000000pt" height="700.000000pt" viewBox="0 0 700.000000 700.000000"
 preserveAspectRatio="xMidYMid meet">
<metadata>
Created by potrace 1.11, written by Peter Selinger 2001-2013
</metadata>
<g transform="translate(0.000000,700.000000) scale(0.100000,-0.100000)"
fill="#000000" stroke="none">
<path d="M1080 3720 l0 -1160 155 0 155 0 0 465 0 465 253 0 c270 0 395 13
509 50 212 72 348 215 405 430 28 103 25 340 -5 445 -49 168 -143 287 -288
362 -172 89 -274 103 -791 103 l-393 0 0 -1160z m836 889 c208 -38 334 -198
334 -424 0 -219 -109 -369 -307 -420 -43 -11 -118 -15 -305 -15 l-248 0 0 435
0 435 233 0 c128 0 260 -5 293 -11z"/>
<path d="M5306 4810 c-271 -57 -435 -200 -482 -419 -26 -125 -12 -271 37 -377
13 -27 50 -77 84 -110 101 -102 217 -149 575 -234 279 -66 368 -109 414 -202
53 -105 25 -258 -57 -321 -96 -73 -201 -100 -387 -100 -206 0 -398 44 -603
137 -43 20 -80 36 -83 36 -2 0 -4 -74 -4 -164 0 -162 0 -164 23 -169 12 -3 83
-21 158 -41 326 -84 669 -90 892 -15 187 63 330 188 388 337 27 70 37 248 20
334 -38 182 -176 310 -422 392 -41 14 -154 44 -250 66 -199 46 -281 71 -359
110 -66 33 -82 50 -111 115 -42 95 -7 225 79 290 158 121 585 119 873 -5 41
-17 80 -34 87 -37 9 -4 12 29 12 145 l0 150 -39 15 c-63 26 -194 56 -304 72
-149 21 -428 19 -541 -5z"/>
<path d="M3500 4000 c-196 -23 -368 -169 -424 -359 -20 -69 -21 -211 -1 -277
49 -168 191 -305 360 -350 116 -31 269 -10 378 53 109 64 208 198 237 322 8
33 11 90 8 147 -5 83 -10 102 -45 176 -97 201 -295 313 -513 288z"/>
</g>
</svg>
